<svg id="Layer_1" data-name="Layer 1" xmlns="http://www.w3.org/2000/svg" viewBox="0 0 61.35066 61.35055"><title>telenet-logo</title><path d="M60.12683,10.90655a10.98446,10.98446,0,0,0-9.58267-9.65987A143.22861,143.22861,0,0,0,30.67519,0,143.24518,143.24518,0,0,0,10.80535,1.24669a10.98425,10.98425,0,0,0-9.58166,9.65987A164.74366,164.74366,0,0,0,0,30.67469,164.74264,164.74264,0,0,0,1.22369,50.44334a10.98528,10.98528,0,0,0,9.58166,9.66037,143.22829,143.22829,0,0,0,19.86984,1.24684,143.21173,143.21173,0,0,0,19.869-1.24684,10.98549,10.98549,0,0,0,9.58267-9.66037,164.83588,164.83588,0,0,0,1.22382-19.76865,164.83691,164.83691,0,0,0-1.22382-19.76814M51.99045,44.98169a7.95091,7.95091,0,0,1-6.9348,6.99242,103.71664,103.71664,0,0,1-14.38047.90194,103.70715,103.70715,0,0,1-14.38062-.90194,7.952,7.952,0,0,1-6.9348-6.99242,119.35947,119.35947,0,0,1-.88522-14.307,119.362,119.362,0,0,1,.88522-14.307,7.95009,7.95009,0,0,1,6.9348-6.99059,103.60756,103.60756,0,0,1,14.38062-.90282,103.617,103.617,0,0,1,14.38047.90282,7.949,7.949,0,0,1,6.9348,6.99059,119.18926,119.18926,0,0,1,.88653,14.307,119.1867,119.1867,0,0,1-.88653,14.307" style="fill:#ffc500"/><path d="M43.13468,24.74379V21.55622c0-.29233-.37093-.38385-.37093-.38385a19.77162,19.77162,0,0,0-4.60182-.66663,18.48,18.48,0,0,0-4.278.42678s-.35425.1098-.35425.42239v3.15292c0,.58525.41141.42574.41141.42574a25.54548,25.54548,0,0,1,4.2097-.24475,29.153,29.153,0,0,1,4.52155.43848.35871.35871,0,0,0,.4623-.38351" style="fill:#ffc500"/><path d="M27.584,22.86323c0-4.0118-4.78442-4.01758-4.78442-4.01758s-4.78442.00578-4.78442,4.01758c0,4.01457,4.78442,4.02028,4.78442,4.02028s4.78442-.0057,4.78442-4.02028" style="fill:#ffc500"/><path d="M30.69727,42.87078c-6.1067-.00292-11.24085-3.58964-12.88068-4.8701a1.77594,1.77594,0,0,1-.5471-1.00794V35.359c0-.818.62137-.3778.62137-.3778a24.92851,24.92851,0,0,0,12.80641,3.705,24.928,24.928,0,0,0,12.80643-3.705s.62094-.44022.62094.3778v1.6337a1.77624,1.77624,0,0,1-.54667,1.00794c-1.64277,1.28046-6.77457,4.86718-12.8807,4.8701" style="fill:#ffc500"/></svg>